<svg xmlns="http://www.w3.org/2000/svg" xml:space="preserve" width="292.46783" height="200" viewBox="0 0 292.46783 200"><path d="M366.187 369.084c2.393 0 4.638-.625 6.587-1.716a13.422 13.422 0 0 0 6.584 1.716c6.195 0 11.415-4.178 13.004-9.867h.236c-1.99 9.12-10.107 15.952-19.827 15.952-9.715 0-17.832-6.832-19.822-15.952h.237c1.587 5.689 6.805 9.867 13 9.867" style="fill:#0c3387;fill-opacity:1;fill-rule:nonzero;stroke:none" transform="matrix(2.51769 0 0 -2.51769 -792.27 944.558)"/><path d="M372.773 367.368a13.442 13.442 0 0 1-6.587 1.716c-6.196 0-11.414-4.178-13-9.867h13.164a13.538 13.538 0 0 0 6.423 8.151" style="fill:#5b9bc7;fill-opacity:1;fill-rule:nonzero;stroke:none" transform="matrix(2.51769 0 0 -2.51769 -792.27 944.558)"/><path d="M379.357 369.084c-2.393 0-4.638-.625-6.584-1.716a13.55 13.55 0 0 0 6.424-8.151h13.164c-1.589 5.689-6.809 9.867-13.004 9.867" style="fill:#4eb799;fill-opacity:1;fill-rule:nonzero;stroke:none" transform="matrix(2.51769 0 0 -2.51769 -792.27 944.558)"/><path d="m416.478 326.492-1.023 1.968h-85.364l-1.022-1.968zM339.629 353.76l.585-21.7h-4.282l.574 21.7zM349.544 353.76l.584-21.7h-4.28l.574 21.7zM359.454 353.76l.587-21.7h-4.282l.576 21.7zM369.37 353.76l.586-21.7h-4.282l.577 21.7zM379.284 353.76l.59-21.7h-4.285l.577 21.7zM389.198 353.76l.587-21.7h-4.282l.576 21.7zM399.113 353.76l.587-21.7h-4.28l.573 21.7zM409.028 353.76l.585-21.7h-4.28l.574 21.7zM329.07 357.246l1.021-1.97h85.364l1.023 1.97zM333.106 330.545l-.6-1.153h80.537l-.602 1.153z" style="fill:#0c3387;fill-opacity:1;fill-rule:nonzero;stroke:none" transform="matrix(2.51769 0 0 -2.51769 -792.27 944.558)"/><path d="M314.682 299.651h2.18v-.498h-1.526v-1.112h1.443v-.497h-1.443v-1.75h-.654zM318.769 295.731c1.202 0 1.56.867 1.56 1.991s-.358 1.99-1.56 1.99c-1.208 0-1.56-.866-1.56-1.99s.352-1.99 1.56-1.99m-.838 1.99c0 .822.173 1.528.838 1.528.66 0 .839-.706.839-1.528 0-.822-.18-1.526-.84-1.526-.664 0-.837.704-.837 1.526M320.982 295.793h.655v1.655h.257c.598 0 .676-.207.811-.821l.178-.834h.666l-.235 1.085c-.089.408-.15.737-.687.855v.012c.396.095.765.284.765.895 0 .755-.514 1.011-1.24 1.011h-1.17zm.655 3.395h.514c.37 0 .576-.218.576-.621 0-.57-.425-.654-.833-.654h-.257zM324.103 299.651h2.253v-.498h-1.6v-1.112h1.516v-.497h-1.516v-1.252h1.645v-.499h-2.298zM326.988 299.651h.653v-3.858h-.653zM331.148 296.085c-.146-.112-.604-.354-1.214-.354-1.152 0-1.643.862-1.643 1.998 0 1.235.424 1.984 1.526 1.984.9 0 1.286-.447 1.286-1.079h-.727c0 .28-.14.616-.559.616-.666 0-.806-.717-.806-1.521 0-.706.14-1.533.923-1.533.314 0 .498.084.56.152v1.229h-.728v.464h1.382zM331.87 299.651h.804l1.487-2.84h.012v2.84h.597v-3.858h-.73l-1.562 2.981h-.01v-2.98h-.599zM336.84 295.793h.682l.336 1.045h1.386l.336-1.045h.683l-1.316 3.858h-.787zm1.705 3.238h.012l.53-1.694h-1.073zM340.67 299.651h2.18v-.498h-1.527v-1.112h1.445v-.497h-1.445v-1.75h-.653zM343.36 299.651h2.18v-.498h-1.526v-1.112h1.442v-.497h-1.442v-1.75h-.655zM345.635 295.793h.683l.336 1.045h1.386l.335-1.045h.683l-1.315 3.858h-.788zm1.706 3.238h.01l.532-1.694h-1.074zM349.448 299.651h.654v-3.858h-.654zM350.902 295.793h.654v1.655h.257c.6 0 .676-.207.811-.821l.178-.834h.666l-.235 1.085c-.09.408-.15.737-.687.855v.012c.397.095.765.284.765.895 0 .755-.513 1.011-1.24 1.011h-1.169zm.654 3.395h.514c.37 0 .577-.218.577-.621 0-.57-.426-.654-.834-.654h-.257zM356.068 299.003c-.257.102-.575.247-.967.247-.324 0-.58-.145-.58-.476 0-.682 1.838-.783 1.838-1.947 0-.72-.582-1.095-1.42-1.095-.498 0-.95.134-1.068.162v.677c.228-.14.604-.375 1.091-.375.514 0 .676.286.676.537 0 .838-1.84.889-1.84 1.985 0 .687.598.995 1.326.995.43 0 .804-.078.944-.106zM358.034 295.793h.682l.337 1.045h1.385l.336-1.045h.682l-1.314 3.858h-.789zm1.705 3.238h.012l.531-1.694h-1.074zM361.865 299.651h.805l1.486-2.84h.012v2.84h.598v-3.858h-.733l-1.56 2.981h-.01v-2.98h-.598zM365.6 295.793h.956c.8 0 1.693.157 1.693 1.94 0 1.381-.458 1.918-1.693 1.918h-.956zm.654 3.395h.302c.81 0 .973-.514.973-1.455 0-1.184-.313-1.476-.973-1.476h-.302zM373.197 296.973c0-.85-.508-1.241-1.336-1.241-.794 0-1.342.39-1.342 1.24v2.68h.655v-2.68c0-.44.173-.775.687-.775.51 0 .683.336.683.776v2.679h.653zM373.98 299.651h.806l1.487-2.84h.01v2.84h.598v-3.858h-.73l-1.56 2.981h-.012v-2.98h-.6zM377.693 299.651h.655v-3.858h-.655zM379.16 299.651h2.18v-.498h-1.528v-1.112h1.443v-.497h-1.443v-1.75h-.653zM381.831 299.651h.654v-3.858h-.654zM385.807 295.955a2.82 2.82 0 0 0-1.052-.224c-1.123 0-1.621.806-1.621 2.008 0 1.135.42 1.974 1.52 1.974.895 0 1.299-.52 1.299-1.118h-.728c0 .301-.066.655-.57.655-.677 0-.8-.806-.8-1.41 0-.923.264-1.594 1.052-1.594.43 0 .795.225.9.286zM385.991 295.793h.682l.336 1.045h1.386l.335-1.045h.683l-1.315 3.858h-.788zm1.706 3.238h.01l.531-1.694h-1.072zM390.27 299.153h-.967v.498h2.588v-.498h-.967v-3.36h-.654zM392.288 299.651h.654v-3.858h-.654zM395.15 295.731c1.202 0 1.561.867 1.561 1.991s-.359 1.99-1.56 1.99c-1.207 0-1.56-.866-1.56-1.99s.353-1.99 1.56-1.99m-.84 1.99c0 .822.174 1.528.84 1.528.66 0 .838-.706.838-1.528 0-.822-.179-1.526-.839-1.526-.665 0-.839.704-.839 1.526M397.376 299.651h.805l1.487-2.84h.012v2.84h.598v-3.858h-.732l-1.56 2.981h-.011v-2.98h-.599zM405.272 295.955a2.83 2.83 0 0 0-1.052-.224c-1.124 0-1.622.806-1.622 2.008 0 1.135.42 1.974 1.521 1.974.894 0 1.298-.52 1.298-1.118h-.727c0 .301-.066.655-.57.655-.676 0-.8-.806-.8-1.41 0-.923.264-1.594 1.052-1.594.43 0 .793.225.9.286zM407.268 295.731c1.2 0 1.56.867 1.56 1.991s-.36 1.99-1.56 1.99c-1.207 0-1.56-.866-1.56-1.99s.353-1.99 1.56-1.99m-.84 1.99c0 .822.174 1.528.84 1.528.659 0 .839-.706.839-1.528 0-.822-.18-1.526-.84-1.526-.665 0-.838.704-.838 1.526M409.487 299.651h.895l1.074-3.08h.01l1.081 3.08h.887v-3.858h-.598v3.043h-.01l-1.064-3.043h-.603l-1.063 3.043h-.01v-3.043h-.599zM414.252 299.651h.894l1.073-3.08h.012l1.079 3.08h.889v-3.858h-.598v3.043h-.012l-1.063-3.043h-.603l-1.063 3.043h-.01v-3.043h-.598zM419.004 299.651h.653v-3.858h-.653zM421.022 299.153h-.966v.498h2.588v-.498h-.967v-3.36h-.655z" style="fill:#505557;fill-opacity:1;fill-rule:nonzero;stroke:none" transform="matrix(2.51769 0 0 -2.51769 -792.27 944.558)"/><path d="M423.61 299.153h-.967v.498h2.59v-.498h-.968v-3.36h-.655zM425.647 299.651h2.253v-.498h-1.6v-1.112h1.516v-.497h-1.515v-1.252h1.645v-.499h-2.3zM428.548 299.651h2.254v-.498h-1.6v-1.112h1.516v-.497h-1.516v-1.252h1.645v-.499h-2.3zM332.528 317.956a.817.817 0 0 1-.033.177c-.025.083-.123.135-.302.158l-2.995.335c-.11.011-.192-.053-.243-.192-.049-.14.003-.254.16-.344.19-.1.434-.229.736-.385.301-.156.451-.405.451-.753v-8.349c-.446-.278-.998-.448-1.657-.509a27.65 27.65 0 0 0-2.509-.093h-.485v2.293a4.12 4.12 0 0 1 2.125 1.346c.56.665.837 1.42.837 2.267 0 1.037-.41 1.923-1.23 2.661-.82.737-1.798 1.105-2.936 1.105-1.139 0-2.11-.368-2.92-1.105-.81-.738-1.213-1.624-1.213-2.66 0-.86.284-1.624.853-2.293a4.094 4.094 0 0 1 2.141-1.338v-2.276h-2.325c-.425 0-.75.017-.979.051a2.535 2.535 0 0 0-.728.234c-.157.055-.279.032-.368-.067-.09-.102-.089-.21.002-.336l.6-.853a.51.51 0 0 1 .26-.175c.083-.017.242-.025.477-.025h6.292c.946 0 1.722.047 2.324.143.602.093 1.082.275 1.44.544v-3.882c0-.145.033-.249.1-.31.067-.06.172-.092.317-.092h.636c.335 0 .613.14.837.417.223.28.335.592.335.937zm-9.454-2.232c.368.518.826.778 1.373.778.546 0 1.006-.26 1.38-.778.373-.52.561-1.124.561-1.817 0-.69-.184-1.31-.552-1.856-.37-.547-.83-.82-1.389-.82s-1.019.273-1.38.82a3.277 3.277 0 0 0-.545 1.856c0 .693.183 1.297.552 1.817M337.982 315.844c-.222 0-.406.01-.553.033a.578.578 0 0 0-.367.218l-.619.852c-.066.1-.073.218-.017.353.056.132.18.155.368.066a2.99 2.99 0 0 1 .761-.235c.23-.033.55-.05.963-.05h8.917c.235-.01.388-.1.461-.266a1.35 1.35 0 0 0 .11-.537 23.32 23.32 0 0 0-.712-4.2c-.374-1.426-.839-2.465-1.398-3.111a1.005 1.005 0 0 0-.719-.368c-.29-.023-.39.183-.302.619.191.947.32 2 .394 3.16.072 1.162.11 2.317.11 3.466zm4-9.387v4.316c0 .346-.048.578-.144.694-.095.118-.253.243-.476.377-.245.1-.329.223-.25.368.077.145.172.213.284.2 1.126-.111 1.931-.19 2.408-.232a.24.24 0 0 0 .193-.127.418.418 0 0 0 .06-.191V306.457h4.616c.503 0 .753-.195.753-.586 0-.39-.25-.586-.753-.586h-12.632c-.3 0-.497.025-.584.076a.79.79 0 0 0-.252.24l-.552.805c-.1.189-.1.334 0 .436.1.1.233.106.401.016.29-.134.536-.234.737-.301.2-.067.541-.1 1.02-.1h1.724v4.049c0 .345-.049.577-.143.694-.096.118-.253.243-.476.376-.247.1-.33.223-.25.369.077.145.171.212.283.2 1.126-.112 1.93-.19 2.408-.234a.235.235 0 0 0 .194-.125.434.434 0 0 0 .06-.193v-5.136zM354.063 308.633c-1.038-.541-1.556-1.313-1.556-2.316 0-1.005.516-1.778 1.55-2.318a6.97 6.97 0 0 1 3.286-.812c1.17 0 2.272.27 3.305.812 1.031.54 1.548 1.313 1.548 2.318 0 1.003-.515 1.775-1.54 2.316a6.96 6.96 0 0 1-3.296.812 7.035 7.035 0 0 1-3.297-.812m4.484 3.79h4.133c.424 0 .636.189.636.569 0 .379-.212.57-.636.57h-7.262c-.323 0-.543.035-.66.108-.118.072-.175.292-.175.66v.369h7.745c.414 0 .623.184.628.552.005.367-.204.553-.628.553h-7.745v1.136h7.914c.411 0 .618.185.618.552 0 .37-.21.553-.635.553h-11.16c-.102 0-.168-.036-.2-.11a.463.463 0 0 1-.052-.207c0-.068.07-.135.21-.201.14-.067.27-.144.392-.234.123-.091.224-.205.301-.344.08-.14.118-.332.118-.577v-2.426c-.01-.581.175-.98.561-1.198.385-.216.75-.325 1.097-.325h2.375v-1.121h-4.134c-.48 0-.809.013-.987.034-.178.022-.413.1-.702.235-.169.089-.3.083-.402-.018-.1-.101-.1-.245 0-.436l.57-.701c.088-.101.16-.171.216-.21.057-.04.234-.057.535-.057h13.153c.501 0 .752.19.752.576 0 .385-.25.577-.752.577h-5.824zm-2.92-4.643c.498.35 1.075.527 1.733.527.647 0 1.224-.177 1.731-.527.508-.351.762-.84.762-1.463 0-.614-.254-1.096-.762-1.45a2.982 2.982 0 0 0-1.73-.525c-.659 0-1.236.177-1.734.526-.495.353-.744.835-.744 1.449 0 .624.25 1.112.744 1.463M379.292 309.34c0 .122-.025.208-.074.259-.052.05-.139.076-.261.076h-8.868c-.345 0-.617.032-.811.1a14.34 14.34 0 0 0-.677.25c-.134.067-.239.044-.311-.074-.072-.117-.064-.232.025-.343l.536-.752a.789.789 0 0 1 .293-.22c.106-.043.288-.066.543-.066h7.195v-1.388h-8.466a.456.456 0 0 1-.201-.041c-.056-.03-.083-.1-.083-.211 0-.178.173-.304.517-.376.346-.073.519-.32.519-.744v-.552c0-.457.106-.846.319-1.164.211-.317.747-.476 1.607-.476h7.929c.391 0 .587.184.587.552 0 .367-.196.552-.587.552h-7.143c-.123.023-.207.062-.25.117a.363.363 0 0 0-.067.235v1.004h7.026c.189 0 .354.073.494.217a.723.723 0 0 1 .209.519zm-11.763 7.656c-.781-.7-1.173-1.544-1.173-2.535 0-.993.392-1.84 1.173-2.536s1.745-1.046 2.895-1.046c1.16 0 2.127.35 2.902 1.046.777.697 1.164 1.543 1.164 2.536 0 .99-.387 1.836-1.164 2.535-.775.696-1.742 1.045-2.902 1.045-1.15 0-2.114-.35-2.895-1.045m9.655-6.201c0-.143.032-.248.099-.308.068-.062.174-.092.319-.092h.719c.335 0 .615.138.836.418.224.279.336.59.336.936v6.207a.967.967 0 0 1-.033.177c-.023.083-.124.135-.303.158l-3.078.335c-.111.01-.192-.053-.242-.192-.051-.14.002-.254.159-.344.188-.101.435-.228.735-.385.301-.156.453-.405.453-.753zm-7.956 5.338c.317.48.717.719 1.196.719.49 0 .894-.24 1.213-.72.318-.48.475-1.036.475-1.671 0-.638-.157-1.195-.475-1.675-.319-.478-.723-.72-1.213-.72-.479 0-.879.242-1.196.72-.318.48-.478 1.037-.478 1.675 0 .635.16 1.19.478 1.672M392.716 303.635c0-.145.034-.25.1-.311.066-.06.172-.09.318-.09h.686c.334 0 .614.139.836.417.224.279.336.59.336.936v13.369a.794.794 0 0 1-.035.177c-.021.083-.122.135-.301.158l-3.044.335c-.113.01-.192-.053-.245-.192-.05-.14.004-.254.16-.344.19-.101.436-.228.738-.385.3-.156.45-.405.45-.753v-6.023a5.536 5.536 0 0 0-1.171-.241c-.457-.051-1.153-.075-2.091-.075h-5.874c-.422 0-.734.016-.936.048-.2.034-.43.112-.686.236-.156.09-.272.078-.351-.035-.078-.111-.078-.24 0-.385l.518-.77c.09-.1.185-.175.284-.224.1-.052.28-.077.537-.077h2.877v-5.27c0-.144.033-.247.1-.31.067-.06.174-.09.318-.09h.754c.334 0 .613.139.837.418.22.277.333.59.333.936v4.316h1.474c.735 0 1.346.05 1.832.152.485.1.899.234 1.246.402zm-8.677 13.385c-.762-.602-1.146-1.333-1.146-2.193 0-.847.384-1.578 1.146-2.19.765-.613 1.69-.921 2.77-.921 1.082 0 2.01.308 2.787.92.774.613 1.163 1.344 1.163 2.19 0 .86-.39 1.592-1.163 2.194-.776.602-1.705.903-2.786.903s-2.006-.301-2.771-.903m1.624-.88c.34.363.722.546 1.147.546.424 0 .808-.183 1.153-.545a1.83 1.83 0 0 0 .52-1.314c0-.524-.165-.975-.495-1.353-.328-.38-.721-.57-1.178-.57-.458 0-.848.19-1.171.57a2.01 2.01 0 0 0-.486 1.353c0 .513.17.953.51 1.314M408.515 307.65c0-.146.033-.249.1-.31.066-.06.172-.092.318-.092h.736c.335 0 .613.14.836.42.224.277.335.588.335.935v9.353a.77.77 0 0 1-.034.176c-.021.083-.122.135-.301.16l-3.095.334c-.112.01-.193-.053-.244-.193-.048-.139.005-.254.16-.344.19-.1.435-.228.737-.384.3-.157.452-.406.452-.753v-6.978h-2.31c-.234 0-.48.06-.736.177-.257.116-.446.115-.57-.008a.304.304 0 0 1-.091-.276.645.645 0 0 1 .127-.293l.552-.703a.81.81 0 0 1 .149-.126.35.35 0 0 1 .185-.04h2.694zm-7.413 1.388c0-.145.033-.248.1-.31.068-.06.174-.092.319-.092h.703c.333 0 .612.112.836.336.223.222.334.507.334.853v1.204h.587c1.103 0 1.932.076 2.492.225a5.422 5.422 0 0 1 1.456.613c.189.121.27.258.242.41-.028.15-.17.197-.427.141a14.273 14.273 0 0 0-1.388-.192c-.446-.04-1.3-.058-2.561-.058h-4.617c-.425 0-.736.015-.937.05-.201.033-.43.111-.686.234-.155.09-.273.077-.352-.034-.078-.11-.078-.239 0-.383l.52-.703a.911.911 0 0 1 .284-.227c.1-.05.279-.076.534-.076h2.56zm-1.288-1.12c-.056-.135.012-.247.2-.334.135-.068.346-.163.637-.286.29-.123.434-.317.434-.586v-1.387c0-.625.2-1.038.604-1.239.4-.2.752-.3 1.053-.3h7.512c.503 0 .752.18.752.543 0 .362-.25.544-.752.544h-5.957c-.434 0-.708.078-.82.233-.11.157-.171.42-.183.786v1.674c0 .178-.106.306-.318.385l-2.911.15c-.113.012-.195-.05-.251-.183m-.11 9.687c-.74-.48-1.112-1.12-1.112-1.924 0-.78.372-1.418 1.113-1.908.742-.49 1.637-.734 2.686-.734 1.06 0 1.956.244 2.693.734.737.49 1.106 1.128 1.106 1.908 0 .792-.37 1.431-1.106 1.915-.737.485-1.633.73-2.693.73-1.05 0-1.944-.24-2.686-.72m1.63-.829c.326.284.676.427 1.056.427.39 0 .746-.143 1.07-.427.324-.284.486-.65.486-1.096 0-.445-.162-.808-.486-1.088-.324-.279-.68-.418-1.07-.418-.38 0-.73.14-1.055.418-.323.28-.484.643-.484 1.088 0 .446.16.812.484 1.096M421.926 310.853c.54.575.813 1.253.813 2.033 0 .424-.09.822-.27 1.197-.177.374-.417.7-.72.98h1.223c.49 0 .736.194.736.585 0 .39-.246.585-.736.585h-3.062l.034 1.59a.385.385 0 0 1-.076.293c-.061.072-.153.113-.276.124l-2.392.202c-.212.021-.336-.043-.37-.193-.032-.15.079-.299.336-.443.223-.1.35-.301.385-.601a8.91 8.91 0 0 0 .052-.971h-2.411c-.312 0-.564.02-.753.067a3.377 3.377 0 0 0-.62.218c-.122.089-.24.095-.351.015-.11-.077-.11-.227 0-.451l.586-.72a.916.916 0 0 1 .25-.233c.079-.046.246-.067.503-.067h.988a2.953 2.953 0 0 1-.728-.98 2.82 2.82 0 0 1-.26-1.197c0-.78.265-1.46.795-2.04a3.924 3.924 0 0 1 1.967-1.171v-1.773h-2.26c-.424 0-.75.016-.98.049-.227.033-.47.111-.726.234-.156.055-.28.033-.367-.066-.09-.1-.09-.212 0-.336l.6-.854c.09-.098.176-.157.26-.174.084-.017.242-.026.476-.026h6.292c.948 0 1.697.048 2.243.144.547.094.997.275 1.354.543v-3.781c0-.144.033-.25.1-.31.068-.06.175-.091.319-.091h.636c.335 0 .613.14.836.417.222.278.335.591.335.935v13.37a.77.77 0 0 1-.034.176c-.021.083-.123.135-.3.16l-2.996.333c-.112.011-.192-.052-.243-.192-.05-.14.003-.254.159-.344.189-.1.435-.228.736-.384.302-.157.452-.406.452-.753v-8.449c-.446-.279-.97-.449-1.572-.51-.604-.062-1.412-.092-2.427-.092h-.552V309.674a4.17 4.17 0 0 1 2.016 1.18m-4.31 3.564c.327.417.706.627 1.14.627.425 0 .797-.21 1.12-.627.323-.419.486-.935.486-1.547 0-.614-.165-1.13-.494-1.549-.328-.417-.711-.628-1.144-.628-.426 0-.797.211-1.115.628-.317.42-.475.935-.475 1.55 0 .611.16 1.127.483 1.546" style="fill:#505557;fill-opacity:1;fill-rule:nonzero;stroke:none" transform="matrix(2.51769 0 0 -2.51769 -792.27 944.558)"/></svg>